<svg width="400" height="400" viewBox="0 0 400 400" fill="none" xmlns="http://www.w3.org/2000/svg">
<rect width="400" height="400" fill="#CBEAFE"/>
<g clip-path="url(#clip0_318_10)">
<path d="M96.3937 197.134C93.6031 197.134 90.9594 196.941 88.4625 196.547C85.9656 196.153 83.9828 195.668 82.5141 195.081V186.066C84.2307 186.799 86.2135 187.358 88.4625 187.752C90.7115 188.146 92.7218 188.338 94.4843 188.338C96.5865 188.338 98.1195 188.237 99.0742 188.045C100.029 187.853 100.506 187.312 100.506 186.433C100.506 185.452 99.7259 184.719 98.1562 184.234C96.5865 183.748 94.4384 183.034 91.6937 182.108C88.5084 180.981 86.1033 179.68 84.4601 178.187C82.817 176.694 82 174.486 82 171.554C82 168.136 83.2852 165.507 85.8555 163.675C88.4258 161.842 92.5291 160.926 98.1562 160.926C100.359 160.926 102.535 161.1 104.692 161.439C106.849 161.778 108.612 162.172 109.98 162.612V171.48C108.612 170.848 107.042 170.381 105.28 170.088C103.517 169.795 101.929 169.648 100.506 169.648C98.6978 169.648 97.1648 169.758 95.9164 169.978C94.6679 170.198 94.0437 170.72 94.0437 171.554C94.0437 172.479 94.7322 173.13 96.1 173.496C97.4677 173.863 99.4505 174.458 102.048 175.292C104.793 176.125 106.923 177.014 108.437 177.967C109.952 178.92 111.035 180.056 111.669 181.375C112.302 182.695 112.623 184.353 112.623 186.359C112.623 189.832 111.256 192.489 108.511 194.348C105.766 196.208 101.727 197.134 96.3937 197.134Z" fill="#CBEAFE"/>
<path d="M118.645 212.232V161.659H128.926L129.514 164.664C130.937 163.491 132.525 162.575 134.287 161.916C136.05 161.256 138.106 160.926 140.456 160.926C145.404 160.926 149.315 162.264 152.206 164.921C155.098 167.587 156.539 172.039 156.539 178.297C156.539 184.554 155.061 189.19 152.096 192.369C149.131 195.549 145.055 197.134 139.869 197.134C136.197 197.134 133.067 196.373 130.469 194.861V212.232H118.645ZM136.858 188.485C141.952 188.485 144.495 185.012 144.495 178.077C144.495 174.751 143.908 172.507 142.733 171.334C141.558 170.161 139.676 169.575 137.078 169.575C134.48 169.575 132.378 170.454 130.469 172.213V186.286C131.396 186.973 132.341 187.504 133.296 187.898C134.251 188.292 135.435 188.485 136.858 188.485Z" fill="#CBEAFE"/>
<path d="M173.43 197.134C171.226 197.134 169.179 196.74 167.297 195.961C165.416 195.182 163.91 193.973 162.781 192.333C161.652 190.693 161.092 188.659 161.092 186.213C161.092 182.649 162.304 179.845 164.727 177.82C167.151 175.796 170.786 174.779 175.633 174.779H185.326V173.972C185.326 172.213 184.739 170.958 183.564 170.198C182.389 169.437 180.186 169.062 176.954 169.062C172.989 169.062 169.097 169.676 165.278 170.894V163.271C166.995 162.584 169.088 162.025 171.557 161.586C174.026 161.146 176.633 160.926 179.378 160.926C184.766 160.926 188.989 162.025 192.046 164.224C195.103 166.423 196.636 169.914 196.636 174.705V196.401H186.281L185.694 193.469C184.418 194.642 182.793 195.549 180.81 196.181C178.827 196.813 176.367 197.134 173.43 197.134ZM177.175 189.877C179.038 189.877 180.654 189.557 182.022 188.925C183.389 188.292 184.491 187.486 185.326 186.506V181.595H176.954C173.475 181.595 171.74 182.988 171.74 185.773C171.74 187.046 172.181 188.045 173.062 188.778C173.944 189.511 175.311 189.877 177.175 189.877Z" fill="#CBEAFE"/>
<path d="M203.759 196.401V161.659H214.995L215.362 164.884C216.877 163.959 218.768 163.116 221.017 162.355C223.266 161.595 225.524 161.118 227.773 160.926V169.795C226.497 169.941 225.093 170.17 223.55 170.491C222.008 170.812 220.539 171.187 219.144 171.627C217.749 172.067 216.565 172.534 215.582 173.02V196.401H203.759Z" fill="#CBEAFE"/>
<path d="M232.253 196.401V147H244.076V172.8L255.459 161.659H268.898L254.945 176.098L269.706 196.401H257.148L247.528 182.328L244.076 185.7V196.401H232.253Z" fill="#CBEAFE"/>
<path d="M166.471 252.728V217.986H177.413L177.781 221.064C179.35 219.937 181.113 219.021 183.068 218.316C185.023 217.61 187.135 217.253 189.384 217.253C191.633 217.253 193.57 217.61 194.891 218.316C196.213 219.021 197.241 220.011 197.976 221.284C199.591 220.111 201.418 219.149 203.447 218.389C205.476 217.629 207.862 217.253 210.607 217.253C214.674 217.253 217.657 218.307 219.566 220.405C221.476 222.503 222.43 225.709 222.43 230.006V252.728H210.754V231.399C210.754 229.493 210.35 228.11 209.542 227.258C208.734 226.406 207.422 225.975 205.613 225.975C204.484 225.975 203.383 226.204 202.309 226.671C201.235 227.139 200.326 227.78 199.591 228.614C199.692 229.154 199.747 229.667 199.775 230.153C199.803 230.638 199.812 231.225 199.812 231.912V252.728H188.796V231.252C188.796 229.493 188.493 228.174 187.878 227.294C187.263 226.415 186.106 225.975 184.39 225.975C183.169 225.975 182.012 226.296 180.938 226.928C179.864 227.56 178.882 228.293 178.001 229.127V252.728H166.471Z" fill="#CBEAFE"/>
<path d="M232.859 252.727V226.708H227.718L228.746 217.986H244.682V252.727H232.859ZM231.904 212.489V203.62H244.755V212.489H231.904Z" fill="#CBEAFE"/>
<path d="M252.246 252.728V217.986H263.262L263.629 220.991C265.052 220.011 266.833 219.149 268.99 218.389C271.147 217.629 273.442 217.253 275.893 217.253C280.4 217.253 283.677 218.325 285.734 220.478C287.79 222.631 288.818 225.948 288.818 230.446V252.728H276.994V231.399C276.994 229.447 276.581 228.055 275.746 227.221C274.911 226.387 273.424 225.975 271.266 225.975C269.99 225.975 268.696 226.268 267.374 226.855C266.052 227.441 264.951 228.174 264.069 229.053V252.728H252.246Z" fill="#CBEAFE"/>
<path d="M310.252 253.46C305.947 253.46 302.771 252.361 300.742 250.162C298.714 247.963 297.695 244.931 297.695 241.074V226.928H292.995V217.986H297.695V210.73L309.518 207.578V217.986H317.963L317.449 226.928H309.518V240.267C309.518 241.926 309.931 243.089 310.766 243.749C311.602 244.409 312.85 244.738 314.512 244.738C315.935 244.738 317.376 244.491 318.845 244.005V251.995C316.54 252.975 313.676 253.46 310.252 253.46Z" fill="#CBEAFE"/>
<path d="M286.936 161.86C286.936 166.533 286.936 171.746 290.755 175.044C293.013 177.17 296.988 178.553 303.239 178.553V179.506C296.997 179.506 293.013 180.89 290.755 183.015C286.936 186.414 286.936 191.627 286.936 196.199H285.375C285.375 191.627 285.375 186.414 281.557 183.015C279.133 180.89 275.324 179.506 269.082 179.506V178.553C275.315 178.553 279.133 177.17 281.557 175.044C285.375 171.746 285.375 166.542 285.375 161.86H286.936Z" fill="#CBEAFE"/>
<path d="M140.181 248.037V240.918H132.451V232.37H140.181V225.187H148.8V232.37H156.53V240.918H148.8V248.037H140.181Z" fill="#CBEAFE"/>
</g>
<g clip-path="url(#clip1_318_10)">
<path d="M68.2319 196.502C64.6971 196.502 61.3484 196.258 58.1857 195.759C55.0231 195.26 52.5115 194.645 50.6511 193.902V182.483C52.8255 183.412 55.337 184.119 58.1857 184.618C61.0345 185.117 63.5809 185.361 65.8133 185.361C68.476 185.361 70.4178 185.233 71.6271 184.99C72.8363 184.746 73.441 184.061 73.441 182.947C73.441 181.706 72.4526 180.777 70.4643 180.162C68.476 179.547 65.7552 178.642 62.2786 177.47C58.2439 176.042 55.1975 174.395 53.1162 172.503C51.0348 170.611 50 167.815 50 164.101C50 159.772 51.6278 156.442 54.8835 154.121C58.1392 151.8 63.3367 150.639 70.4643 150.639C73.2549 150.639 76.0106 150.86 78.7431 151.289C81.4755 151.719 83.708 152.218 85.4405 152.775V164.008C83.708 163.207 81.7197 162.616 79.4872 162.244C77.2548 161.873 75.2432 161.687 73.441 161.687C71.1503 161.687 69.2086 161.826 67.6272 162.105C66.0459 162.384 65.2552 163.045 65.2552 164.101C65.2552 165.273 66.1273 166.097 67.8598 166.561C69.5923 167.025 72.1038 167.78 75.3944 168.836C78.871 169.892 81.5685 171.018 83.4871 172.224C85.4056 173.431 86.7776 174.87 87.5799 176.541C88.3822 178.213 88.7892 180.313 88.7892 182.854C88.7892 187.253 87.0567 190.618 83.5801 192.974C80.1035 195.33 74.9874 196.502 68.2319 196.502Z" fill="#0D0E0E"/>
<path d="M96.417 215.627V151.568H109.44L110.184 155.374C111.986 153.889 113.998 152.728 116.23 151.893C118.463 151.057 121.067 150.639 124.044 150.639C130.311 150.639 135.264 152.334 138.927 155.699C142.59 159.076 144.415 164.716 144.415 172.642C144.415 180.568 142.543 186.44 138.787 190.467C135.032 194.494 129.869 196.502 123.3 196.502C118.649 196.502 114.684 195.539 111.393 193.624V215.627H96.417ZM119.486 185.547C125.939 185.547 129.16 181.149 129.16 172.364C129.16 168.151 128.416 165.308 126.927 163.823C125.439 162.337 123.055 161.594 119.765 161.594C116.474 161.594 113.812 162.708 111.393 164.937V182.762C112.568 183.632 113.765 184.305 114.974 184.804C116.184 185.303 117.684 185.547 119.486 185.547Z" fill="#0D0E0E"/>
<path d="M165.81 196.502C163.019 196.502 160.426 196.003 158.043 195.016C155.659 194.03 153.752 192.498 152.322 190.421C150.892 188.344 150.182 185.767 150.182 182.669C150.182 178.155 151.717 174.603 154.787 172.039C157.856 169.474 162.461 168.186 168.6 168.186H180.879V167.165C180.879 164.937 180.135 163.347 178.646 162.384C177.158 161.42 174.367 160.945 170.275 160.945C165.252 160.945 160.322 161.722 155.484 163.265V153.61C157.659 152.74 160.31 152.032 163.438 151.475C166.565 150.918 169.868 150.639 173.344 150.639C180.17 150.639 185.518 152.032 189.39 154.817C193.262 157.602 195.204 162.024 195.204 168.093V195.573H182.088L181.344 191.86C179.728 193.345 177.67 194.494 175.158 195.295C172.647 196.096 169.53 196.502 165.81 196.502ZM170.554 187.311C172.914 187.311 174.96 186.905 176.693 186.104C178.425 185.303 179.821 184.282 180.879 183.04V176.82H170.275C165.868 176.82 163.67 178.584 163.67 182.112C163.67 183.725 164.228 184.99 165.345 185.918C166.461 186.847 168.193 187.311 170.554 187.311Z" fill="#0D0E0E"/>
<path d="M204.227 195.573V151.568H218.459L218.924 155.653C220.842 154.481 223.237 153.413 226.086 152.45C228.935 151.487 231.795 150.883 234.644 150.639V161.873C233.028 162.059 231.249 162.349 229.295 162.755C227.342 163.161 225.482 163.637 223.714 164.194C221.947 164.751 220.447 165.343 219.203 165.958V195.573H204.227Z" fill="#0D0E0E"/>
<path d="M240.318 195.573V133H255.294V165.679L269.712 151.568H286.735L269.061 169.857L287.758 195.573H271.852L259.666 177.748L255.294 182.019V195.573H240.318Z" fill="#0D0E0E"/>
<path d="M156.996 266.92V222.915H170.856L171.321 226.814C173.309 225.386 175.542 224.226 178.018 223.332C180.495 222.439 183.169 221.986 186.018 221.986C188.867 221.986 191.32 222.439 192.994 223.332C194.669 224.226 195.971 225.479 196.901 227.092C198.948 225.607 201.262 224.388 203.831 223.425C206.401 222.462 209.424 221.986 212.901 221.986C218.052 221.986 221.831 223.321 224.249 225.978C226.668 228.636 227.877 232.697 227.877 238.14V266.92H213.087V239.904C213.087 237.49 212.575 235.738 211.552 234.659C210.529 233.579 208.866 233.034 206.575 233.034C205.145 233.034 203.75 233.324 202.389 233.916C201.029 234.508 199.878 235.32 198.948 236.376C199.076 237.061 199.145 237.711 199.18 238.326C199.215 238.941 199.227 239.684 199.227 240.554V266.92H185.274V239.718C185.274 237.49 184.89 235.819 184.111 234.705C183.332 233.591 181.867 233.034 179.693 233.034C178.146 233.034 176.681 233.44 175.321 234.241C173.96 235.042 172.716 235.97 171.6 237.026V266.92H156.996Z" fill="#0D0E0E"/>
<path d="M241.086 266.92V233.962H234.574L235.877 222.914H256.062V266.92H241.086ZM239.877 215.952V204.718H256.155V215.952H239.877Z" fill="#0D0E0E"/>
<path d="M265.643 266.92V222.915H279.596L280.061 226.721C281.863 225.479 284.119 224.388 286.852 223.425C289.584 222.462 292.491 221.986 295.595 221.986C301.304 221.986 305.455 223.344 308.06 226.071C310.665 228.798 311.967 232.999 311.967 238.697V266.92H296.991V239.904C296.991 237.432 296.467 235.668 295.409 234.612C294.351 233.556 292.468 233.034 289.735 233.034C288.119 233.034 286.479 233.405 284.805 234.148C283.131 234.891 281.735 235.819 280.619 236.933V266.92H265.643Z" fill="#0D0E0E"/>
<path d="M339.117 267.849C333.664 267.849 329.641 266.456 327.071 263.671C324.501 260.886 323.211 257.044 323.211 252.159V234.241H317.257V222.915H323.211V213.724L338.187 209.731V222.915H348.884L348.233 234.241H338.187V251.138C338.187 253.238 338.71 254.712 339.768 255.547C340.826 256.383 342.407 256.801 344.512 256.801C346.314 256.801 348.14 256.487 350 255.872V265.992C347.082 267.234 343.454 267.849 339.117 267.849Z" fill="#0D0E0E"/>
<path d="M309.583 151.823C309.583 157.741 309.583 164.345 314.42 168.522C317.281 171.215 322.315 172.967 330.234 172.967V174.174C322.327 174.174 317.281 175.926 314.42 178.619C309.583 182.924 309.583 189.527 309.583 195.318H307.607C307.607 189.527 307.607 182.924 302.769 178.619C299.7 175.926 294.874 174.174 286.968 174.174V172.967C294.863 172.967 299.7 171.215 302.769 168.522C307.607 164.345 307.607 157.753 307.607 151.823H309.583Z" fill="#0D0E0E"/>
<path d="M123.695 260.978V251.961H113.905V241.134H123.695V232.036H134.613V241.134H144.403V251.961H134.613V260.978H123.695Z" fill="#0D0E0E"/>
</g>
<defs>
<clipPath id="clip0_318_10">
<rect width="236.844" height="106.46" fill="white" transform="translate(82 147)"/>
</clipPath>
<clipPath id="clip1_318_10">
<rect width="300" height="134.848" fill="white" transform="translate(50 133)"/>
</clipPath>
</defs>
</svg>
